<?xml version="1.0" encoding="utf-8"?>
<!-- Generator: Adobe Illustrator 15.0.2, SVG Export Plug-In . SVG Version: 6.00 Build 0)  -->
<!DOCTYPE svg PUBLIC "-//W3C//DTD SVG 1.1//EN" "http://www.w3.org/Graphics/SVG/1.1/DTD/svg11.dtd">
<svg version="1.1"
	 id="svg2" inkscape:version="0.92.2 2405546, 2018-03-11" sodipodi:docname="browserAction-notPrinted.svg" xmlns:dc="http://purl.org/dc/elements/1.1/" xmlns:cc="http://creativecommons.org/ns#" xmlns:rdf="http://www.w3.org/1999/02/22-rdf-syntax-ns#" xmlns:svg="http://www.w3.org/2000/svg" xmlns:sodipodi="http://sodipodi.sourceforge.net/DTD/sodipodi-0.dtd" xmlns:inkscape="http://www.inkscape.org/namespaces/inkscape"
	 xmlns="http://www.w3.org/2000/svg" xmlns:xlink="http://www.w3.org/1999/xlink" x="0px" y="0px" width="96px" height="96px"
	 viewBox="0 0 96 96" enable-background="new 0 0 96 96" xml:space="preserve">
<sodipodi:namedview  id="namedview9" inkscape:pageshadow="2" inkscape:window-width="1600" inkscape:window-height="841" inkscape:current-layer="svg2" inkscape:window-x="0" inkscape:window-y="0" inkscape:pageopacity="0" gridtolerance="10" inkscape:cx="-39.24275" objecttolerance="10" inkscape:zoom="3.4766083" borderopacity="1" showgrid="false" bordercolor="#666666" guidetolerance="10" pagecolor="#ffffff" inkscape:cy="53.605992" inkscape:window-maximized="1">
	</sodipodi:namedview>
<path id="rect3826" fill="#F5F5F5" d="M23.808,2h48.385C84.236,2,94,11.764,94,23.808v48.385C94,84.236,84.236,94,72.191,94H23.808
	C11.764,94,2,84.236,2,72.191V23.808C2,11.764,11.764,2,23.808,2z"/>
<path id="path4138" inkscape:connector-curvature="0" fill="#5C5C5C" d="M30.141,82.826c0.456,0.027,1.107-0.164,1.411-0.412
	c0.139-0.113,0.567-0.551,0.953-0.971c1.881-2.055,3.544-2.898,4.942-2.512c1.059,0.295,2.344,2.311,3.471,5.439
	c0.671,1.863,1.018,2.273,2.078,2.461c0.646,0.107,1.577-0.211,1.949-0.676c0.786-0.983,0.744-1.582-0.297-4.196
	c-1.14-2.86-2.118-4.487-3.483-5.796c-0.557-0.533-0.688-0.609-1.792-1.092c-1.115-0.481-1.25-0.521-2.083-0.575
	c-1.22-0.079-1.971,0.035-3.196,0.483c-1.626,0.602-3.177,1.717-4.734,3.402c-0.836,0.906-1.096,1.307-1.206,1.854
	C27.903,81.493,28.871,82.75,30.141,82.826z M22.995,76.758c0.63-0.013,2.712-0.607,4.185-1.197c2.96-1.186,5.259-2.843,6.942-5.006
	c1.732-2.223,2.766-5.514,2.534-8.063c-0.14-1.537-1.171-2.426-2.56-2.204c-1.155,0.185-1.846,1.142-1.794,2.487
	c0.05,1.305-0.112,2.123-0.675,3.406c-0.385,0.877-0.617,1.291-0.996,1.769c-0.619,0.78-1.767,1.784-2.752,2.403
	c-0.96,0.604-3.115,1.506-4.52,1.896c-1.711,0.474-2.105,0.747-2.419,1.679C20.476,75.309,21.548,76.785,22.995,76.758
	L22.995,76.758z M51.635,88.271c0.777,0.125,1.611-0.18,2.063-0.742c0.357-0.449,0.572-1.219,0.482-1.725
	c-0.047-0.263-0.535-1.228-1.246-2.457C47.646,74.152,43.52,64.589,41.913,57.8c-0.611-2.579-0.907-5.196-0.801-7.098
	c0.148-2.679,0.969-4.377,2.944-6.095c1.762-1.532,3.848-1.911,5.826-1.057c1.743,0.751,3.076,2.407,3.571,4.432
	c0.115,0.471,0.252,1.868,0.331,3.375c0.401,7.608,1.776,12.149,5.877,19.399c1.379,2.438,4.983,8.372,5.26,8.658
	c0.401,0.418,1.349,0.726,1.919,0.621c1.196-0.216,2.012-1.457,1.729-2.644c-0.047-0.197-0.655-1.31-1.354-2.465
	c-4.362-7.22-5.924-10.104-7.028-13.035c-1.252-3.308-1.752-5.979-2.022-10.822c-0.16-2.872-0.322-3.907-0.828-5.318
	c-1.099-3.067-3.728-5.678-6.591-6.551c-2.245-0.684-4.219-0.622-6.348,0.198c-2.368,0.913-4.308,2.545-5.829,4.908
	c-0.639,0.992-1.221,2.44-1.507,3.751c-0.764,3.5-0.163,8.708,1.692,14.667c1.689,5.424,4.678,12.258,8.348,19.088
	c1.315,2.445,2.89,5.199,3.224,5.629C50.621,87.842,51.201,88.205,51.635,88.271L51.635,88.271z M16.767,68.199
	c1.446,0.063,3.005-0.068,4.184-0.352c3.642-0.881,7.026-3.611,9.745-7.875c1.634-2.563,2.318-4.521,3.509-10.056
	c1.172-5.442,2.109-7.967,3.715-10.011c1.779-2.264,4.521-3.784,7.851-4.352c2.52-0.429,4.891-0.146,7.23,0.864
	c2.353,1.015,4.129,2.524,5.588,4.745c1.854,2.821,2.699,5.881,2.933,10.603c0.065,1.353,0.201,2.918,0.306,3.479
	c0.688,3.884,2.864,8.895,5.92,13.621c0.916,1.419,1.207,1.744,1.771,1.988c1.646,0.711,3.463-0.881,2.918-2.563
	c-0.076-0.231-0.453-0.908-0.842-1.498c-2.793-4.276-4.836-8.867-5.479-12.313c-0.08-0.438-0.163-1.319-0.184-1.963
	c-0.133-4.199-0.59-6.895-1.646-9.699c-1.692-4.485-4.479-7.75-8.463-9.903c-3.774-2.044-8.652-2.458-13.146-1.115
	c-5.404,1.616-9.096,5.196-11.024,10.692c-0.607,1.731-1.005,3.23-1.692,6.383c-0.791,3.628-1.068,4.646-1.708,6.272
	c-0.496,1.265-0.673,1.619-1.226,2.455c-1.98,2.99-3.854,4.75-5.994,5.623c-1.19,0.481-2.282,0.648-4.036,0.612
	c-1.452-0.028-1.799,0.037-2.299,0.449c-0.739,0.608-1,1.592-0.647,2.442C14.468,67.754,15.168,68.129,16.767,68.199z M59.887,85.92
	c0.512-0.016,0.977-0.203,1.449-0.588c0.332-0.27,0.672-1.158,0.635-1.663c-0.039-0.546-0.158-0.802-1.128-2.423
	c-4.798-8.023-8.554-16.719-10.219-23.664c-0.656-2.736-0.978-4.822-1.11-7.225c-0.078-1.394-0.127-1.67-0.354-2.042
	c-0.219-0.346-0.375-0.48-0.848-0.716c-0.381-0.191-0.708-0.283-0.942-0.294c-1.189-0.013-2.147,0.904-2.231,2.133
	c-0.043,0.635,0.108,2.902,0.277,4.158c1.131,8.401,5.262,19.02,11.536,29.646c0.567,0.964,1.172,1.891,1.34,2.059
	C58.714,85.734,59.246,85.938,59.887,85.92L59.887,85.92z M14.583,61.125c0.586-0.031,2.742-0.874,4.285-1.674
	c1.912-0.99,3.742-2.354,4.875-3.629c0.981-1.105,1.427-1.824,2.097-3.387c0.732-1.707,0.892-2.229,2.144-7.027
	c1.272-4.877,1.599-5.944,2.381-7.763c0.754-1.753,1.157-2.384,2.252-3.528c0.693-0.725,2.023-1.881,2.895-2.519
	c2.495-1.823,5.927-3.274,8.839-3.737c6.736-1.071,14.553,1.754,18.793,6.792c1.272,1.517,2.274,3.206,3.144,5.3
	c1,2.419,1.549,4.663,2.187,8.936c0.336,2.241,0.695,3.818,1.256,5.479c0.899,2.672,2.705,5.885,3.646,6.496
	c0.739,0.479,1.938,0.368,2.604-0.236c0.179-0.161,0.406-0.493,0.521-0.754c0.354-0.813,0.248-1.536-0.35-2.337
	c-0.592-0.796-1.432-2.38-1.93-3.637c-0.799-2.012-1.113-3.368-1.652-7.07c-0.938-6.443-2.918-11.259-6.196-15.068
	c-2.198-2.553-4.604-4.357-7.858-5.901c-5.721-2.709-11.805-3.296-17.592-1.696c-4.545,1.257-9.443,4.404-12.359,7.941
	c-0.997,1.21-1.276,1.7-2.223,3.907c-1.008,2.352-1.2,2.962-2.501,7.973c-1.507,5.809-2,7.213-2.963,8.454
	c-1.16,1.496-3.207,2.865-6.102,4.084c-1.705,0.721-2.043,0.949-2.319,1.588C11.812,59.604,12.948,61.215,14.583,61.125
	L14.583,61.125z M16.24,52.795c0.483,0.055,1.019-0.072,1.441-0.348c0.606-0.393,0.871-0.975,1.224-2.689
	c1.364-6.627,3.764-12.456,6.843-16.617c0.599-0.81,0.96-1.228,1.792-2.076c1.003-1.021,1.213-1.806,0.752-2.811
	c-0.614-1.339-2.258-1.645-3.459-0.643c-0.925,0.771-2.451,2.626-3.626,4.407c-2.578,3.906-4.743,9.102-6.082,14.591
	c-0.455,1.863-0.815,3.732-0.801,4.146C14.359,51.752,15.23,52.678,16.24,52.795L16.24,52.795z M77.986,50.193
	c0.961,0.14,1.797-0.314,2.26-1.229c0.326-0.641,0.309-1-0.189-3.746c-0.914-5.066-2.465-10.016-4.086-13.047
	c-2.645-4.948-6.426-8.803-11.617-11.844c-1.439-0.847-4.94-2.44-6.443-2.938c-6.184-2.042-12.656-2.134-19.49-0.278
	c-2.937,0.798-7.896,2.919-9.62,4.115c-0.965,0.67-1.278,1.718-0.809,2.71c0.53,1.121,1.613,1.56,2.716,1.102
	c0.315-0.131,1.1-0.529,1.743-0.884c1.418-0.784,5.004-2.234,6.736-2.724c7.333-2.072,14.103-1.64,20.314,1.298
	c5.23,2.475,8.859,5.515,11.537,9.662c2.168,3.365,3.648,7.662,4.71,13.635c0.521,2.965,0.522,2.974,0.88,3.377
	C77.049,49.893,77.426,50.111,77.986,50.193L77.986,50.193z M81.521,35.5c1.049-0.005,1.99-0.758,2.176-1.744
	c0.117-0.623-0.105-1.528-0.82-3.338c-2.076-5.25-5.73-10.019-10.551-13.767c-4.316-3.356-9.973-5.997-15.771-7.365
	C52.813,8.404,48.351,8.09,44.511,8.44c-1.835,0.167-4.559,0.642-6.361,1.109c-1.521,0.395-2.014,0.709-2.351,1.499
	c-0.576,1.351,0.384,2.922,1.839,3.013c0.196,0.012,1.036-0.144,1.867-0.347c3.635-0.888,6.941-1.216,10.265-1.017
	c7.313,0.437,15.015,3.396,20.502,7.883c4.207,3.437,7.521,8.089,8.979,12.609c0.271,0.842,0.504,1.368,0.694,1.58
	C80.284,35.141,81.063,35.502,81.521,35.5L81.521,35.5z"/>
<linearGradient id="rect3826-9_1_" gradientUnits="userSpaceOnUse" x1="-2392.2759" y1="-1420.481" x2="-2391.7678" y2="-1511.1927" gradientTransform="matrix(-1.0612 0 0 -1 -2512.8511 -1417.5977)">
	<stop  offset="0" style="stop-color:#0050BF;stop-opacity:0"/>
	<stop  offset="0.6455" style="stop-color:#0050BF;stop-opacity:0.498"/>
	<stop  offset="0.8787" style="stop-color:#0050BF"/>
	<stop  offset="1" style="stop-color:#0050BF"/>
</linearGradient>
<path id="rect3826-9" inkscape:connector-curvature="0" opacity="0.5" fill="url(#rect3826-9_1_)" enable-background="new    " d="
	M48,3v90H26.146C13.326,93,3,83.27,3,71.188V24.813C3,12.731,13.326,3,26.146,3H48z"/>
<path id="rect3826-4" inkscape:connector-curvature="0" opacity="0.5" fill="#004FBD" enable-background="new    " d="M71.188,3
	C83.27,3,93,12.731,93,24.813v46.375C93,83.27,83.27,93,71.188,93H48V3H71.188z"/>
<path id="rect3826-0" fill="none" stroke="#000000" stroke-width="4" stroke-linecap="round" stroke-linejoin="round" d="M23.808,2
	h48.385C84.236,2,94,11.764,94,23.808v48.385C94,84.236,84.236,94,72.191,94H23.808C11.764,94,2,84.236,2,72.191V23.808
	C2,11.764,11.764,2,23.808,2z"/>
<g id="Haekchen">
	<g id="XMLID_1_">
		<g>
			<path fill="#FFFFFF" d="M78.01,58.39c6.16,6.17,6.16,16.19,0,22.36c-2.99,2.98-6.96,4.62-11.18,4.62s-8.19-1.64-11.17-4.62
				c-6.16-6.17-6.16-16.19,0-22.36c2.979-2.979,6.95-4.62,11.17-4.62S75.02,55.41,78.01,58.39z M77.78,65l-3.11-3.16l-10.4,8.63
				l-3.859-4.2l-4.271,4.28l8.04,8.04L77.78,65z"/>
			<polygon fill="#58E617" points="74.67,61.84 77.78,65 64.18,78.59 56.14,70.55 60.41,66.27 64.27,70.47 			"/>
			<path fill="#58E617" d="M78.01,80.75c6.16-6.17,6.16-16.19,0-22.36c-2.99-2.979-6.96-4.62-11.18-4.62s-8.19,1.641-11.17,4.62
				c-6.16,6.17-6.16,16.19,0,22.36c2.979,2.98,6.95,4.62,11.17,4.62S75.02,83.73,78.01,80.75z M80.08,56.33
				c7.31,7.31,7.31,19.17,0,26.479c-3.66,3.66-8.46,5.49-13.25,5.49s-9.58-1.83-13.24-5.49c-7.32-7.31-7.32-19.17,0-26.479
				c3.66-3.66,8.45-5.49,13.24-5.49S76.42,52.67,80.08,56.33z"/>
		</g>
		<g>
			<path fill="none" stroke="#000000" stroke-width="0.5" stroke-linejoin="round" stroke-miterlimit="10" d="M80.08,56.33
				c-3.66-3.66-8.46-5.49-13.25-5.49s-9.58,1.83-13.24,5.49c-7.32,7.31-7.32,19.17,0,26.479c3.66,3.66,8.45,5.49,13.24,5.49
				s9.59-1.83,13.25-5.49C87.39,75.5,87.39,63.64,80.08,56.33z"/>
			<path fill="none" stroke="#000000" stroke-width="0.5" stroke-linejoin="round" stroke-miterlimit="10" d="M78.01,80.75
				c-2.99,2.98-6.96,4.62-11.18,4.62s-8.19-1.64-11.17-4.62c-6.16-6.17-6.16-16.19,0-22.36c2.979-2.979,6.95-4.62,11.17-4.62
				s8.189,1.641,11.18,4.62C84.17,64.56,84.17,74.58,78.01,80.75z"/>
			<polygon fill="none" stroke="#000000" stroke-width="0.5" stroke-linejoin="round" stroke-miterlimit="10" points="64.27,70.47 
				60.41,66.27 56.14,70.55 64.18,78.59 77.78,65 74.67,61.84 			"/>
		</g>
	</g>
</g>
</svg>
