<?xml version="1.0" encoding="UTF-8" standalone="no"?>
<!-- Created with Inkscape (http://www.inkscape.org/) -->

<svg
   xmlns:dc="http://purl.org/dc/elements/1.1/"
   xmlns:cc="http://creativecommons.org/ns#"
   xmlns:rdf="http://www.w3.org/1999/02/22-rdf-syntax-ns#"
   xmlns:svg="http://www.w3.org/2000/svg"
   xmlns="http://www.w3.org/2000/svg"
   xmlns:sodipodi="http://sodipodi.sourceforge.net/DTD/sodipodi-0.dtd"
   xmlns:inkscape="http://www.inkscape.org/namespaces/inkscape"
   id="svg2"
   version="1.1"
   inkscape:version="0.48.4 r9939"
   width="38"
   height="38"
   viewBox="0 0 38 38"
   sodipodi:docname="pageAction-printed.svg"
   inkscape:export-filename="Fingerprint.png"
   inkscape:export-xdpi="90"
   inkscape:export-ydpi="90">
  <metadata
     id="metadata8">
    <rdf:RDF>
      <cc:Work
         rdf:about="">
        <dc:format>image/svg+xml</dc:format>
        <dc:type
           rdf:resource="http://purl.org/dc/dcmitype/StillImage" />
        <dc:title />
        <cc:license
           rdf:resource="http://creativecommons.org/publicdomain/zero/1.0/" />
      </cc:Work>
      <cc:License
         rdf:about="http://creativecommons.org/publicdomain/zero/1.0/">
        <cc:permits
           rdf:resource="http://creativecommons.org/ns#Reproduction" />
        <cc:permits
           rdf:resource="http://creativecommons.org/ns#Distribution" />
        <cc:permits
           rdf:resource="http://creativecommons.org/ns#DerivativeWorks" />
      </cc:License>
    </rdf:RDF>
  </metadata>
  <defs
     id="defs6" />
  <sodipodi:namedview
     pagecolor="#ffffff"
     bordercolor="#666666"
     borderopacity="1"
     objecttolerance="10"
     gridtolerance="10"
     guidetolerance="10"
     inkscape:pageopacity="0"
     inkscape:pageshadow="2"
     inkscape:window-width="1600"
     inkscape:window-height="848"
     id="namedview4"
     showgrid="false"
     inkscape:zoom="8.4296296"
     inkscape:cx="23.956678"
     inkscape:cy="31.057044"
     inkscape:window-x="-8"
     inkscape:window-y="-8"
     inkscape:window-maximized="1"
     inkscape:current-layer="svg2" />
  <path
     id="path3753"
     style="fill:none;stroke:#919191;stroke-width:5;stroke-linecap:round;stroke-linejoin:round;stroke-miterlimit:4;stroke-opacity:1;stroke-dasharray:none"
     d="m 6.5395498,10.17429 c 0.7408653,-1.9520786 2.3402,-3.5432761 3.9775962,-4.8388171 1.242812,-0.983338 2.744201,-1.660303 4.268645,-2.093438 0.979278,-0.27824 2.022824,-0.2462293 3.039548,-0.297934 1.219195,-0.062001 2.453007,-0.18146 3.662283,-0.014333 1.368105,0.1890774 2.759629,0.4995468 3.983586,1.1393823 1.564395,0.8178027 3.037124,1.9416322 4.101829,3.349658 0.928071,1.2273323 1.485164,2.5584127 1.835282,4.2356441"
     inkscape:connector-curvature="0"
     sodipodi:nodetypes="caaaaaac" />
  <path
     style="fill:none;stroke:#919191;stroke-width:5;stroke-linecap:round;stroke-linejoin:round;stroke-miterlimit:4;stroke-opacity:1;stroke-dasharray:none"
     d="m 28.226191,30.535847 c -0.705549,-0.276298 -2.334601,-2.105253 -2.9331,-3.506685 -0.492279,-1.152708 -0.452262,-2.484391 -0.415298,-3.737271 0.0444,-1.504792 0.705511,-2.947131 0.76257,-4.451496 0.03729,-0.983271 0.01802,-2.000111 -0.276597,-2.938947 -0.28837,-0.918928 -0.808138,-1.772901 -1.421391,-2.515536 -0.348954,-0.422576 -0.798177,-0.758586 -1.2526,-1.064918 -0.711789,-0.479826 -1.441775,-1.018308 -2.282216,-1.193051 -1.050788,-0.218477 -2.178824,-0.06167 -3.211511,0.230645 -1.154928,0.326914 -2.286754,0.87691 -3.194005,1.662802 -1.275306,1.104713 -1.992225,2.724079 -2.953811,4.110495 -0.566475,0.816745 -0.941198,1.789962 -1.658273,2.478272 -1.1594225,1.112912 -2.9893077,2.51719 -4.1134185,2.515015"
     id="path3761"
     inkscape:connector-curvature="0"
     sodipodi:nodetypes="caaaaaaaaaaac" />
  <path
     style="fill:none;stroke:#919191;stroke-width:5;stroke-linecap:round;stroke-linejoin:round;stroke-miterlimit:4;stroke-opacity:1;stroke-dasharray:none"
     d="m 18.150896,20.381584 c -0.879767,2.887668 -1.890819,4.740429 -3.506955,6.659271 -1.522926,1.808173 -3.627915,3.352908 -5.62199,4.323469"
     id="path3764"
     inkscape:connector-curvature="0"
     sodipodi:nodetypes="cac" />
  <path
     style="fill:none;stroke:#919191;stroke-width:5;stroke-linecap:round;stroke-linejoin:round;stroke-miterlimit:4;stroke-opacity:1;stroke-dasharray:none"
     d="m 17.696557,34.987707 c 0.591743,-0.876117 1.883594,-1.823128 2.139697,-2.959374 0.360415,-1.599032 0.578087,2.114498 1.043851,3.123918"
     id="path3768"
     inkscape:connector-curvature="0"
     sodipodi:nodetypes="csc" />
  <path
     style="fill:none;stroke:#919191;stroke-width:5;stroke-linecap:round;stroke-linejoin:round;stroke-miterlimit:4;stroke-opacity:1;stroke-dasharray:none"
     d="M 32.860324,19.731113 32.504352,22.69683"
     id="path3774"
     inkscape:connector-curvature="0" />
</svg>
