<?xml version="1.0" encoding="UTF-8" standalone="no"?>
<!-- Created with Inkscape (http://www.inkscape.org/) -->

<svg
   xmlns:dc="http://purl.org/dc/elements/1.1/"
   xmlns:cc="http://creativecommons.org/ns#"
   xmlns:rdf="http://www.w3.org/1999/02/22-rdf-syntax-ns#"
   xmlns:svg="http://www.w3.org/2000/svg"
   xmlns="http://www.w3.org/2000/svg"
   xmlns:sodipodi="http://sodipodi.sourceforge.net/DTD/sodipodi-0.dtd"
   xmlns:inkscape="http://www.inkscape.org/namespaces/inkscape"
   version="1.1"
   width="96"
   height="96"
   id="svg2"
   inkscape:version="0.48.4 r9939"
   sodipodi:docname="icon.svg">
  <sodipodi:namedview
     pagecolor="#ffffff"
     bordercolor="#666666"
     borderopacity="1"
     objecttolerance="10"
     gridtolerance="10"
     guidetolerance="10"
     inkscape:pageopacity="0"
     inkscape:pageshadow="2"
     inkscape:window-width="1600"
     inkscape:window-height="848"
     id="namedview9"
     showgrid="false"
     inkscape:zoom="2.4583333"
     inkscape:cx="48"
     inkscape:cy="48"
     inkscape:window-x="-8"
     inkscape:window-y="-8"
     inkscape:window-maximized="1"
     inkscape:current-layer="svg2" />
  <defs
     id="defs4" />
  <metadata
     id="metadata7">
    <rdf:RDF>
      <cc:Work
         rdf:about="">
        <dc:format>image/svg+xml</dc:format>
        <dc:type
           rdf:resource="http://purl.org/dc/dcmitype/StillImage" />
        <dc:title />
      </cc:Work>
    </rdf:RDF>
  </metadata>
  <path
     inkscape:connector-curvature="0"
     style="fill:#fa1111;fill-opacity:1;fill-rule:nonzero;stroke:#000000;stroke-width:1;stroke-linecap:round;stroke-linejoin:round;stroke-miterlimit:4;stroke-opacity:1;stroke-dasharray:none;stroke-dashoffset:0"
     id="path2987"
     d="m 47.25,8.375 c -21.815247,0 -39.5,17.684752 -39.5,39.5 0,21.815248 17.684753,39.5 39.5,39.5 21.815247,0 39.5,-17.684752 39.5,-39.5 0,-21.815248 -17.684753,-39.5 -39.5,-39.5 z m 0,10 c 16.2924,0 29.5,13.207599 29.5,29.5 0,16.292401 -13.2076,29.5 -29.5,29.5 -16.2924,0 -29.5,-13.207599 -29.5,-29.5 0,-16.292401 13.2076,-29.5 29.5,-29.5 z" />
  <path
     d="m 48.91846,73.835182 c -0.282367,-0.102295 -0.62663,-0.387092 -0.745268,-0.616373 -0.05415,-0.105029 -0.199261,-0.480524 -0.322481,-0.835289 -0.601343,-1.731275 -1.385838,-2.674864 -2.331622,-2.80444 -0.716462,-0.0982 -2.017967,0.784277 -3.515336,2.383521 -0.891321,0.952044 -1.207664,1.109582 -1.896247,0.944406 -0.419527,-0.100934 -0.897867,-0.538082 -1.001228,-0.915626 -0.21867,-0.799008 -0.03682,-1.149955 1.273107,-2.45772 1.435009,-1.432568 2.449727,-2.160651 3.615136,-2.593845 0.475422,-0.17677 0.575428,-0.190818 1.366826,-0.192864 0.799022,0 0.88948,0.01364 1.408016,0.195592 0.757802,0.270473 1.181708,0.535218 1.804002,1.126768 0.826436,0.785505 1.472899,1.863307 1.973337,3.289737 0.268632,0.765864 0.321459,1.075346 0.24494,1.435159 -0.174192,0.819331 -1.08634,1.326179 -1.873182,1.040974 z m 5.898748,-1.803564 c -0.377476,-0.171451 -1.480156,-1.074256 -2.215864,-1.814068 -1.479515,-1.487808 -2.436169,-3.087733 -2.889822,-4.832922 -0.466543,-1.794563 -0.233619,-4.052326 0.570722,-5.531815 0.484956,-0.89203 1.339313,-1.159502 2.120999,-0.663976 0.649927,0.411916 0.817681,1.170688 0.435676,1.970514 -0.370164,0.774867 -0.48561,1.312267 -0.480004,2.233895 0.0041,0.629741 0.03682,0.940178 0.140938,1.327679 0.170072,0.632877 0.602638,1.538138 1.036296,2.168834 0.422801,0.614873 1.488844,1.722546 2.236132,2.323234 0.910498,0.732037 1.077255,0.99992 1.023761,1.644664 -0.07925,0.955045 -1.112078,1.567872 -1.978834,1.173961 z M 34.513986,71.523679 c -0.502292,-0.128212 -0.927438,-0.527034 -1.052146,-0.986417 -0.09916,-0.365269 -0.02878,-0.885755 0.157933,-1.167823 0.09548,-0.144171 0.642344,-0.599733 1.392795,-1.160185 5.590902,-4.176037 10.575618,-8.877337 13.316429,-12.559622 1.042134,-1.400105 1.902657,-2.903871 2.334105,-4.078787 0.608368,-1.656804 0.555433,-2.896916 -0.189959,-4.449512 -0.664808,-1.384693 -1.826616,-2.157105 -3.244671,-2.157105 -1.248651,0 -2.485749,0.652519 -3.31246,1.747098 -0.192278,0.254651 -0.638429,1.061162 -1.079356,1.951282 -2.226161,4.494114 -4.240472,6.878999 -8.607288,10.190559 -1.46934,1.114355 -5.19283,3.758938 -5.434523,3.859872 -0.351752,0.146898 -1.002116,0.08457 -1.3209,-0.125484 -0.667168,-0.441378 -0.834731,-1.404198 -0.355967,-2.045669 0.08061,-0.10775 0.738912,-0.618828 1.462725,-1.134951 4.519334,-3.222903 6.213208,-4.561358 7.645708,-6.041391 1.618449,-1.67208 2.617414,-3.157569 4.043285,-6.012475 0.846078,-1.693902 1.213024,-2.276995 1.886575,-2.997985 1.463611,-1.566508 3.731278,-2.459221 5.688985,-2.23976 1.534986,0.172268 2.711144,0.723854 3.783803,1.77465 1.192865,1.16864 1.938884,2.660405 2.242256,4.483884 0.127393,0.765727 0.101472,1.79238 -0.06711,2.658905 -0.449739,2.311913 -2.17163,5.304169 -4.844788,8.419046 -2.434165,2.836493 -6.021094,6.186243 -10.017949,9.355542 -1.432322,1.135771 -3.101346,2.387068 -3.414989,2.560291 -0.288383,0.15931 -0.732911,0.228054 -1.012509,0.156582 z M 60.810233,68.484775 C 59.92029,68.146103 59.0123,67.660397 58.37458,67.181919 56.402785,65.70284 55.071341,63.168738 54.540228,59.884458 c -0.319235,-1.97406 -0.221766,-3.335567 0.500151,-6.986888 0.710392,-3.593083 0.802364,-5.362958 0.364627,-7.016623 -0.484778,-1.831526 -1.745269,-3.46446 -3.608507,-4.674839 -1.410322,-0.916308 -2.916434,-1.363006 -4.59337,-1.362597 -1.685009,4.1e-4 -3.152494,0.449016 -4.612273,1.409927 -1.854999,1.221154 -3.164034,2.84945 -4.533545,5.639021 -0.392631,0.799691 -0.882892,1.710135 -1.089478,2.023027 -1.430139,2.166516 -4.051577,4.625736 -7.126817,6.685862 -0.923033,0.618283 -1.184082,0.739949 -1.588768,0.739949 -1.18104,0 -1.862202,-1.435296 -1.095438,-2.308231 0.106802,-0.121392 0.510899,-0.430738 0.897868,-0.68689 2.80253,-1.855259 5.233108,-4.095973 6.5204,-6.01111 0.163607,-0.243468 0.444091,-0.755499 0.623302,-1.13809 1.172175,-2.501777 2.151103,-4.010999 3.521379,-5.429245 2.191735,-2.268267 4.727487,-3.513426 7.692055,-3.777352 2.815146,-0.250696 5.869641,0.770774 8.233099,2.753018 2.843475,2.384885 4.140451,5.510128 3.872911,9.33249 -0.08429,1.204378 -0.234874,2.213299 -0.641294,4.29675 -0.467838,2.398388 -0.565988,3.086642 -0.604029,4.235779 -0.02946,0.89203 -0.01487,1.153092 0.101209,1.801928 0.415967,2.324871 1.089587,3.87474 2.155616,4.959771 0.592559,0.603143 1.208661,0.988189 2.277556,1.423429 0.885046,0.360358 1.077256,0.49198 1.271784,0.871162 0.287864,0.561133 0.189222,1.221426 -0.245745,1.645072 -0.518005,0.50453 -1.038601,0.54954 -2.022685,0.174997 z M 30.142342,67.95133 c -0.306113,-0.142398 -0.537209,-0.376727 -0.723376,-0.733266 -0.129985,-0.248923 -0.103256,-0.874571 0.05006,-1.169596 0.166335,-0.319985 0.304491,-0.443014 1.313166,-1.170005 4.989996,-3.596082 9.524388,-7.870053 12.341157,-11.632265 1.109691,-1.482081 1.847035,-2.658496 2.554194,-4.074969 0.409188,-0.819604 0.511703,-0.97605 0.745923,-1.138498 0.220757,-0.1529 0.351342,-0.192591 0.698293,-0.212233 0.279993,-0.01637 0.502019,0.01364 0.645589,0.06819 0.721713,0.302253 1.06164,1.106036 0.79148,1.871354 -0.138728,0.393093 -0.822496,1.726092 -1.251748,2.440398 -2.873019,4.780955 -8.134866,10.116769 -14.696839,14.903452 -0.594795,0.433876 -1.20019,0.836381 -1.345342,0.894485 -0.366347,0.14649 -0.741517,0.130941 -1.122609,-0.04637 z M 63.97293,64.780257 c -0.345832,-0.172268 -1.428463,-1.242704 -2.152411,-2.128323 -0.896669,-1.096898 -1.647201,-2.396889 -1.999213,-3.46296 -0.304885,-0.923401 -0.386614,-1.474168 -0.384623,-2.592071 0.0027,-1.222518 0.04202,-1.579194 0.536692,-4.804824 0.502756,-3.278143 0.583093,-4.007861 0.584621,-5.310581 0.0014,-1.255798 -0.07734,-1.741914 -0.440588,-2.718509 -0.230113,-0.618557 -0.731914,-1.663896 -1.092531,-2.275905 -1.032055,-1.751599 -2.727118,-3.522565 -4.365793,-4.561493 -3.790283,-2.40289 -9.249508,-2.73365 -13.124356,-0.795189 -1.16631,0.583502 -2.211771,1.342683 -3.28053,2.382293 -1.234739,1.200968 -2.150993,2.41312 -3.649509,4.828148 -0.786255,1.267255 -1.415354,2.125596 -2.186019,2.982572 -1.240563,1.379647 -3.168236,2.850951 -3.896454,2.973981 -0.571172,0.09684 -1.26506,-0.280704 -1.510545,-0.820832 -0.06506,-0.143353 -0.117165,-0.403869 -0.117846,-0.590459 -0.0027,-0.584185 0.250873,-0.9931 0.818894,-1.321677 0.565048,-0.326942 1.485858,-1.064845 2.114003,-1.694039 1.005608,-1.007286 1.550578,-1.744098 2.840802,-3.840913 2.245121,-3.648596 4.697099,-6.041528 7.672197,-7.487599 1.993743,-0.968957 3.916408,-1.432568 6.286685,-1.515906 4.161471,-0.146352 7.989604,1.085031 11.068731,3.56021 2.418303,1.944053 4.556993,5.121945 5.396415,8.018725 0.287168,0.991054 0.327896,1.360005 0.324595,2.93988 -0.0041,1.68381 -0.04692,2.102272 -0.567407,5.468664 -0.603321,3.902291 -0.672024,4.879024 -0.413526,5.879488 0.311447,1.205468 1.191079,2.566428 2.622051,4.056965 0.842941,0.877981 0.986852,1.106036 0.986852,1.563645 0,1.0703 -1.106622,1.747096 -2.071133,1.266709 z m 1.170715,-5.464571 c -0.306428,-0.09275 -0.596201,-0.309483 -0.780063,-0.585003 -0.263886,-0.395276 -0.272165,-0.815512 -0.03818,-1.944054 0.903433,-4.359081 0.972558,-8.506066 0.197092,-11.822401 -0.150976,-0.645699 -0.260052,-0.992145 -0.54201,-1.721454 -0.339613,-0.87839 -0.261963,-1.406925 0.278288,-1.893723 0.720022,-0.648973 1.79264,-0.404959 2.257477,0.513258 0.357781,0.706805 0.796458,2.225302 1.042217,3.607676 0.538968,3.031675 0.493181,6.734555 -0.128622,10.399927 -0.211005,1.243795 -0.480251,2.467678 -0.596965,2.713463 -0.281167,0.592232 -1.048817,0.925038 -1.689183,0.732311 z M 28.518751,41.649941 c -0.617082,-0.165721 -1.003165,-0.657429 -1.04497,-1.331225 -0.02932,-0.472204 0.07542,-0.684572 1.0908,-2.213845 1.873618,-2.821899 4.100079,-5.407967 5.869136,-6.817211 2.887327,-2.300184 6.176655,-3.643685 10.10538,-4.127618 1.093104,-0.135033 3.623443,-0.185635 4.661526,-0.09411 4.265159,0.376862 8.201576,2.009113 11.846706,4.91203 1.566401,1.247479 4.009145,3.821409 4.738727,4.993051 0.408643,0.656337 0.324541,1.371326 -0.217402,1.848167 -0.612472,0.538901 -1.380804,0.521851 -1.92808,-0.04228 -0.156542,-0.161492 -0.526557,-0.606416 -0.822251,-0.988598 -0.652409,-0.843337 -2.440903,-2.653994 -3.35949,-3.4009 -3.889961,-3.163297 -8.093195,-4.666654 -12.611111,-4.510617 -3.807045,0.13094 -6.791214,1.021879 -9.487491,2.830491 -2.187479,1.467349 -4.204217,3.676283 -6.399703,7.00953 -1.089777,1.654484 -1.093583,1.659394 -1.411727,1.811885 -0.3851,0.18468 -0.669418,0.218098 -1.03005,0.121392 z m 1.694244,-9.797193 c -0.633341,-0.276474 -1.005225,-0.977141 -0.860468,-1.621067 0.09139,-0.40646 0.462247,-0.895712 1.36647,-1.802747 2.622474,-2.630671 6.073294,-4.559174 9.961865,-5.567005 3.482136,-0.902533 7.587439,-1.023925 11.448225,-0.338398 2.489719,0.442059 5.267479,1.415791 7.495851,2.62767 1.065075,0.579274 2.586859,1.576192 3.55373,2.328144 0.816249,0.634787 1.032218,0.953272 1.029763,1.518088 -0.0041,0.96582 -0.99359,1.665397 -1.89611,1.340637 -0.121802,-0.04365 -0.588535,-0.356948 -1.037292,-0.695893 -1.964444,-1.483853 -3.876294,-2.543376 -5.935779,-3.289599 -4.530422,-1.641528 -9.954812,-1.859898 -14.440305,-0.581593 -3.437726,0.979732 -6.652213,2.926922 -8.711644,5.277163 -0.383545,0.437695 -0.660825,0.695347 -0.832029,0.773093 -0.301204,0.136805 -0.865651,0.152354 -1.142277,0.03137 z"
     id="path4138"
     inkscape:connector-curvature="0" />
  <rect
     style="fill:#fa1111;fill-opacity:1;fill-rule:nonzero;stroke:#000000;stroke-width:0.99999988;stroke-linecap:round;stroke-linejoin:round;stroke-miterlimit:4;stroke-opacity:1;stroke-dasharray:none;stroke-dashoffset:0"
     id="rect3795"
     transform="matrix(0.67533082,0.73751494,-0.73751494,0.67533082,0,0)"
     y="-7.0302258"
     x="32.719814"
     ry="4.723"
     rx="4.723"
     height="9"
     width="69" />
</svg>
