<?xml version="1.0" encoding="UTF-8" standalone="no"?>
<!-- Created with Inkscape (http://www.inkscape.org/) -->

<svg
   xmlns:dc="http://purl.org/dc/elements/1.1/"
   xmlns:cc="http://creativecommons.org/ns#"
   xmlns:rdf="http://www.w3.org/1999/02/22-rdf-syntax-ns#"
   xmlns:svg="http://www.w3.org/2000/svg"
   xmlns="http://www.w3.org/2000/svg"
   xmlns:sodipodi="http://sodipodi.sourceforge.net/DTD/sodipodi-0.dtd"
   xmlns:inkscape="http://www.inkscape.org/namespaces/inkscape"
   id="svg2"
   version="1.1"
   inkscape:version="0.48.4 r9939"
   width="38"
   height="38"
   viewBox="0 0 38 38"
   sodipodi:docname="Fingerprint.svg"
   inkscape:export-filename="Fingerprint.png"
   inkscape:export-xdpi="90"
   inkscape:export-ydpi="90">
  <metadata
     id="metadata8">
    <rdf:RDF>
      <cc:Work
         rdf:about="">
        <dc:format>image/svg+xml</dc:format>
        <dc:type
           rdf:resource="http://purl.org/dc/dcmitype/StillImage" />
        <dc:title />
        <cc:license
           rdf:resource="http://creativecommons.org/publicdomain/zero/1.0/" />
      </cc:Work>
      <cc:License
         rdf:about="http://creativecommons.org/publicdomain/zero/1.0/">
        <cc:permits
           rdf:resource="http://creativecommons.org/ns#Reproduction" />
        <cc:permits
           rdf:resource="http://creativecommons.org/ns#Distribution" />
        <cc:permits
           rdf:resource="http://creativecommons.org/ns#DerivativeWorks" />
      </cc:License>
    </rdf:RDF>
  </metadata>
  <defs
     id="defs6" />
  <sodipodi:namedview
     pagecolor="#ffffff"
     bordercolor="#666666"
     borderopacity="1"
     objecttolerance="10"
     gridtolerance="10"
     guidetolerance="10"
     inkscape:pageopacity="0"
     inkscape:pageshadow="2"
     inkscape:window-width="1600"
     inkscape:window-height="848"
     id="namedview4"
     showgrid="false"
     inkscape:zoom="4.2148148"
     inkscape:cx="89.808567"
     inkscape:cy="55.539303"
     inkscape:window-x="-8"
     inkscape:window-y="-8"
     inkscape:window-maximized="1"
     inkscape:current-layer="svg2" />
  <path
     d="m 20.192971,37.9413 c -0.20702,-0.075 -0.45942,-0.2838 -0.5464,-0.4519 -0.0397,-0.077 -0.14609,-0.3523 -0.23643,-0.6124 -0.44088,-1.2693 -1.01604,-1.9611 -1.70945,-2.0561 -0.52528,-0.072 -1.47949,0.575 -2.5773,1.7475 -0.65348,0.698 -0.88541,0.8135 -1.39025,0.6924 -0.30758,-0.074 -0.65828,-0.3945 -0.73406,-0.6713 -0.16032,-0.5858 -0.027,-0.8431 0.93339,-1.8019 1.05209,-1.0503 1.79604,-1.5841 2.65047,-1.9017 0.34856,-0.1296 0.42188,-0.1399 1.0021,-0.1414 0.58581,0 0.65213,0.01 1.0323,0.1434 0.55559,0.1983 0.86638,0.3924 1.32262,0.8261 0.60591,0.5759 1.07987,1.3661 1.44677,2.4119 0.19695,0.5615 0.23568,0.7884 0.17958,1.0522 -0.12771,0.6007 -0.79646,0.9723 -1.37334,0.7632 z m 4.32472,-1.3223 c -0.27675,-0.1257 -1.08519,-0.7876 -1.62458,-1.33 -1.08472,-1.0908 -1.7861,-2.2638 -2.1187,-3.5433 -0.34205,-1.3157 -0.17128,-2.971 0.41843,-4.0557 0.35555,-0.654 0.98193,-0.8501 1.55503,-0.4868 0.4765,0.302 0.59949,0.8583 0.31942,1.4447 -0.27139,0.5681 -0.35603,0.9621 -0.35192,1.6378 0.003,0.4617 0.027,0.6893 0.10333,0.9734 0.12469,0.464 0.44183,1.1277 0.75977,1.5901 0.30998,0.4508 1.09156,1.2629 1.63944,1.7033 0.66754,0.5367 0.7898,0.7331 0.75058,1.2058 -0.0581,0.7002 -0.81533,1.1495 -1.4508,0.8607 z M 9.6322007,36.2466 c -0.36826,-0.094 -0.67996,-0.3864 -0.77139,-0.7232 -0.0727,-0.2678 -0.0211,-0.6494 0.11579,-0.8562 0.07,-0.1057 0.47094,-0.4397 1.02114,-0.8506 4.0990203,-3.0617 7.7536103,-6.5085 9.7630603,-9.2082 0.76405,-1.0265 1.39495,-2.129 1.71127,-2.9904 0.44603,-1.2147 0.40722,-2.1239 -0.13927,-3.2622 -0.48741,-1.0152 -1.3392,-1.5815 -2.37886,-1.5815 -0.91546,0 -1.82245,0.4784 -2.42856,1.2809 -0.14097,0.1867 -0.46807,0.778 -0.79134,1.4306 -1.63213,3.2949 -3.10894,5.0434 -6.3105103,7.4713 -1.07726,0.817 -3.80717,2.7559 -3.98437,2.8299 -0.25789,0.1077 -0.73471,0.062 -0.96843,-0.092 -0.48914,-0.3236 -0.61199,-1.0295 -0.26098,-1.4998 0.0591,-0.079 0.54174,-0.4537 1.07241,-0.8321 3.31339,-2.3629 4.55527,-3.3442 5.6055203,-4.4293 1.18658,-1.2259 1.91898,-2.315 2.96437,-4.4081 0.62031,-1.2419 0.88934,-1.6694 1.38316,-2.198 1.07306,-1.1485 2.73562,-1.803 4.17093,-1.6421 1.12539,0.1263 1.9877,0.5307 2.77413,1.3011 0.87456,0.8568 1.42151,1.9505 1.64393,3.2874 0.0934,0.5614 0.0744,1.3141 -0.0492,1.9494 -0.32973,1.695 -1.59215,3.8888 -3.552,6.1725 -1.78463,2.0796 -4.41442,4.5355 -7.34475,6.8591 -1.05012,0.8327 -2.27378,1.7501 -2.50373,1.8771 -0.21143,0.1168 -0.5373403,0.1672 -0.7423303,0.1148 z m 19.2793303,-2.228 c -0.65247,-0.2483 -1.31817,-0.6044 -1.78572,-0.9552 -1.44564,-1.0844 -2.4218,-2.9423 -2.81119,-5.3502 -0.23405,-1.4473 -0.16259,-2.4455 0.36669,-5.1225 0.52083,-2.6343 0.58826,-3.9319 0.26733,-5.1443 -0.35542,-1.3428 -1.27956,-2.54 -2.64561,-3.4274 -1.03399,-0.6718 -2.13821,-0.9993 -3.36767,-0.999 -1.23538,3e-4 -2.31128,0.3292 -3.38153,1.0337 -1.36001,0.8953 -2.31974,2.0891 -3.32381,4.1343 -0.28786,0.5863 -0.6473,1.2538 -0.79876,1.4832 -1.04852,1.5884 -2.9704503,3.3914 -5.2250903,4.9018 -0.67673,0.4533 -0.86812,0.5425 -1.16482,0.5425 -0.86589,0 -1.36529,-1.0523 -0.80313,-1.6923 0.0783,-0.089 0.37457,-0.3158 0.65828,-0.5036 2.0547,-1.3602 3.8367,-3.003 4.78049,-4.4071 0.11995,-0.1785 0.3255903,-0.5539 0.4569803,-0.8344 0.85939,-1.8342 1.5771,-2.9407 2.58173,-3.9805 1.60689,-1.663 3.466,-2.5759 5.6395,-2.7694 2.06395,-0.1838 4.30338,0.5651 6.03617,2.0184 2.08472,1.7485 3.03561,4.0398 2.83946,6.8422 -0.0618,0.883 -0.1722,1.6227 -0.47017,3.1502 -0.343,1.7584 -0.41496,2.263 -0.44285,3.1055 -0.0216,0.654 -0.0109,0.8454 0.0742,1.3211 0.30497,1.7045 0.79884,2.8408 1.58041,3.6363 0.43444,0.4422 0.88614,0.7245 1.66981,1.0436 0.64888,0.2642 0.7898,0.3607 0.93242,0.6387 0.21105,0.4114 0.13873,0.8955 -0.18017,1.2061 -0.37978,0.3699 -0.76146,0.4029 -1.48295,0.1283 z M 6.4270907,33.6275 c -0.22443,-0.1044 -0.39386,-0.2762 -0.53035,-0.5376 -0.0953,-0.1825 -0.0757,-0.6412 0.0367,-0.8575 0.12195,-0.2346 0.22324,-0.3248 0.96276,-0.8578 3.6584603,-2.6365 6.9828903,-5.77 9.0480303,-8.5283 0.81358,-1.0866 1.35417,-1.9491 1.87263,-2.9876 0.3,-0.6009 0.37516,-0.7156 0.54688,-0.8347 0.16185,-0.1121 0.25759,-0.1412 0.51196,-0.1556 0.20528,-0.012 0.36806,0.01 0.47332,0.05 0.52913,0.2216 0.77835,0.8109 0.58028,1.372 -0.10171,0.2882 -0.60302,1.2655 -0.91773,1.7892 -2.10638,3.5052 -5.96415,7.4172 -10.7751203,10.9266 -0.43608,0.3181 -0.87993,0.6132 -0.98635,0.6558 -0.26859,0.1074 -0.54365,0.096 -0.82305,-0.034 z M 31.230291,31.3026 c -0.25355,-0.1263 -1.04729,-0.9111 -1.57806,-1.5604 -0.6574,-0.8042 -1.20766,-1.7573 -1.46574,-2.5389 -0.22353,-0.677 -0.28345,-1.0808 -0.28199,-1.9004 0.002,-0.8963 0.0308,-1.1578 0.39348,-3.5227 0.3686,-2.4034 0.4275,-2.9384 0.42862,-3.8935 0.001,-0.9207 -0.0567,-1.2771 -0.32302,-1.9931 -0.16871,-0.4535 -0.53661,-1.2199 -0.801,-1.6686 -0.75666,-1.2842 -1.99941,-2.5826 -3.20082,-3.3443 -2.77888,-1.7617 -6.78136,-2.0042 -9.62224,-0.583 -0.85509,0.4278 -1.62158,0.9844 -2.40515,1.7466 -0.90526,0.8805 -1.57702,1.7692 -2.6756703,3.5398 -0.57645,0.9291 -1.03768,1.5584 -1.6027,2.1867 -0.90953,1.0115 -2.32282,2.0902 -2.85672,2.1804 -0.41876,0.071 -0.92749,-0.2058 -1.10747,-0.6018 -0.0477,-0.1051 -0.0859,-0.2961 -0.0864,-0.4329 -0.002,-0.4283 0.18393,-0.7281 0.60038,-0.969 0.41427,-0.2397 1.08937,-0.7807 1.5499,-1.242 0.73727,-0.7385 1.13682,-1.2787 2.08276,-2.816 1.64603,-2.675 3.4437203,-4.4294 5.6249403,-5.4896 1.46173,-0.7104 2.87135,-1.0503 4.60914,-1.1114 3.05102,-0.1073 5.85765,0.7955 8.11514,2.6102 1.773,1.4253 3.341,3.7552 3.95643,5.879 0.21054,0.7266 0.2404,0.9971 0.23798,2.1554 -0.003,1.2345 -0.0344,1.5413 -0.416,4.0094 -0.44233,2.861 -0.4927,3.5771 -0.30318,4.3106 0.22834,0.8838 0.87325,1.8816 1.92238,2.9744 0.61801,0.6437 0.72352,0.8109 0.72352,1.1464 0,0.7847 -0.81133,1.2809 -1.51847,0.9287 z m 0.85832,-4.0064 c -0.22466,-0.068 -0.43711,-0.2269 -0.57191,-0.4289 -0.19347,-0.2898 -0.19954,-0.5979 -0.028,-1.4253 0.66236,-3.1959 0.71304,-6.2363 0.1445,-8.6677 -0.11069,-0.4734 -0.19066,-0.7274 -0.39738,-1.2621 -0.24899,-0.644 -0.19206,-1.0315 0.20403,-1.3884 0.52789,-0.4758 1.31429,-0.2969 1.65509,0.3763 0.26231,0.5182 0.58393,1.6315 0.76411,2.645 0.39515,2.2227 0.36158,4.9375 -0.0943,7.6248 -0.1547,0.9119 -0.3521,1.8092 -0.43767,1.9894 -0.20614,0.4342 -0.76895,0.6782 -1.23844,0.5369 z M 5.2367407,14.3444 c -0.45242,-0.1215 -0.73548,-0.482 -0.76613,-0.976 -0.0215,-0.3462 0.0553,-0.5019 0.79973,-1.6231 1.37366,-2.0689 3.00601,-3.9649 4.30301,-4.9981 2.1168703,-1.6864 4.5284703,-2.6714 7.4088503,-3.0262 0.80142,-0.099 2.65656,-0.1361 3.41764,-0.069 3.12704,0.2763 6.01306,1.473 8.68552,3.6013 1.14842,0.9146 2.93934,2.8017 3.47424,3.6607 0.2996,0.4812 0.23794,1.0054 -0.15939,1.355 -0.44904,0.3951 -1.01235,0.3826 -1.41359,-0.031 -0.11477,-0.1184 -0.38605,-0.4446 -0.60284,-0.7248 -0.47832,-0.6183 -1.78957,-1.9458 -2.46304,-2.4934 -2.85196,-2.3192 -5.9336,-3.4214 -9.24595,-3.307 -2.79117,0.096 -4.97904,0.7492 -6.95584,2.0752 -1.60377,1.0758 -3.0823603,2.6953 -4.6920003,5.1391 -0.79898,1.213 -0.80177,1.2166 -1.03502,1.3284 -0.28234,0.1354 -0.49079,0.1599 -0.75519,0.089 z m 1.24215,-7.1829 c -0.46434,-0.2027 -0.73699,-0.7164 -0.63086,-1.1885 0.067,-0.298 0.3389,-0.6567 1.00184,-1.3217 1.92269,-1.9287 4.4526903,-3.3426 7.3036303,-4.0815 2.55296,-0.6617 5.5628,-0.7507 8.39337,-0.2481 1.82536,0.3241 3.8619,1.038 5.49565,1.9265 0.78087,0.4247 1.89658,1.1556 2.60545,1.7069 0.59844,0.4654 0.75678,0.6989 0.75498,1.113 -0.003,0.7081 -0.72846,1.221 -1.39015,0.9829 -0.0893,-0.032 -0.43149,-0.2617 -0.7605,-0.5102 -1.44025,-1.0879 -2.84194,-1.8647 -4.35187,-2.4118 -3.32152,-1.2035 -7.29846,-1.3636 -10.58704,-0.4264 -2.5204,0.7183 -4.8771303,2.1459 -6.3870203,3.869 -0.2812,0.3209 -0.48449,0.5098 -0.61001,0.5668 -0.22083,0.1003 -0.63466,0.1117 -0.83747,0.023 z"
     id="path4138"
     inkscape:connector-curvature="0" />
</svg>
