<?xml version="1.0" encoding="UTF-8" standalone="no"?>
<!-- Created with Inkscape (http://www.inkscape.org/) -->

<svg
   xmlns:dc="http://purl.org/dc/elements/1.1/"
   xmlns:cc="http://creativecommons.org/ns#"
   xmlns:rdf="http://www.w3.org/1999/02/22-rdf-syntax-ns#"
   xmlns:svg="http://www.w3.org/2000/svg"
   xmlns="http://www.w3.org/2000/svg"
   xmlns:sodipodi="http://sodipodi.sourceforge.net/DTD/sodipodi-0.dtd"
   xmlns:inkscape="http://www.inkscape.org/namespaces/inkscape"
   version="1.1"
   viewBox="0 0 38 38"
   width="38"
   height="38"
   id="svg2"
   inkscape:version="0.48.4 r9939"
   sodipodi:docname="pageAction-printed.svg">
  <sodipodi:namedview
     pagecolor="#ffffff"
     bordercolor="#666666"
     borderopacity="1"
     objecttolerance="10"
     gridtolerance="10"
     guidetolerance="10"
     inkscape:pageopacity="0"
     inkscape:pageshadow="2"
     inkscape:window-width="852"
     inkscape:window-height="555"
     id="namedview3829"
     showgrid="false"
     inkscape:zoom="2.4583333"
     inkscape:cx="47.999999"
     inkscape:cy="47.999999"
     inkscape:window-x="0"
     inkscape:window-y="0"
     inkscape:window-maximized="0"
     inkscape:current-layer="svg2"
     showborder="true" />
  <defs
     id="defs4" />
  <metadata
     id="metadata7">
    <rdf:RDF>
      <cc:Work
         rdf:about="">
        <dc:format>image/svg+xml</dc:format>
        <dc:type
           rdf:resource="http://purl.org/dc/dcmitype/StillImage" />
        <dc:title />
      </cc:Work>
    </rdf:RDF>
  </metadata>
  <path
     inkscape:connector-curvature="0"
     style="fill:none;stroke:#000000;stroke-width:1px;stroke-linecap:butt;stroke-linejoin:miter;stroke-opacity:1"
     id="path2985"
     d="m 17.561156,17.285201 c -0.394679,0.957248 -1.484191,-0.06011 -1.589923,-0.65643 -0.286528,-1.615991 1.508275,-2.641803 2.901887,-2.525589 2.492848,0.207879 3.878825,2.864697 3.457805,5.151311 -0.617862,3.355698 -4.231731,5.147228 -7.393699,4.394746 C 10.72282,22.646301 8.518158,18.040036 9.61154,14.003048 10.987448,8.9229111 16.592649,6.2980809 21.497051,7.7391441 c 5.939887,1.7453204 8.98338,8.3637109 7.193568,14.1410709 -2.109233,6.80842 -9.735607,10.275974 -16.377323,8.133063 C 4.6451732,27.539202 0.7574939,18.891994 3.2518469,11.377326 6.0860892,2.8386827 15.743958,-1.4749865 24.12098,1.3751058 33.518733,4.5724794 38.252899,15.255362 35.050312,24.505938 31.494834,34.775831 19.800678,39.937257 9.689367,36.377316" />
</svg>
