<?xml version="1.0" encoding="UTF-8" standalone="no"?>
<!-- Created with Inkscape (http://www.inkscape.org/) -->

<svg
   xmlns:dc="http://purl.org/dc/elements/1.1/"
   xmlns:cc="http://creativecommons.org/ns#"
   xmlns:rdf="http://www.w3.org/1999/02/22-rdf-syntax-ns#"
   xmlns:svg="http://www.w3.org/2000/svg"
   xmlns="http://www.w3.org/2000/svg"
   xmlns:sodipodi="http://sodipodi.sourceforge.net/DTD/sodipodi-0.dtd"
   xmlns:inkscape="http://www.inkscape.org/namespaces/inkscape"
   id="svg2"
   version="1.1"
   inkscape:version="0.48.4 r9939"
   width="38"
   height="38"
   viewBox="0 0 38 38"
   sodipodi:docname="pageAction-printed.svg"
   inkscape:export-filename="Fingerprint.png"
   inkscape:export-xdpi="90"
   inkscape:export-ydpi="90">
  <metadata
     id="metadata8">
    <rdf:RDF>
      <cc:Work
         rdf:about="">
        <dc:format>image/svg+xml</dc:format>
        <dc:type
           rdf:resource="http://purl.org/dc/dcmitype/StillImage" />
        <dc:title />
        <cc:license
           rdf:resource="http://creativecommons.org/publicdomain/zero/1.0/" />
      </cc:Work>
      <cc:License
         rdf:about="http://creativecommons.org/publicdomain/zero/1.0/">
        <cc:permits
           rdf:resource="http://creativecommons.org/ns#Reproduction" />
        <cc:permits
           rdf:resource="http://creativecommons.org/ns#Distribution" />
        <cc:permits
           rdf:resource="http://creativecommons.org/ns#DerivativeWorks" />
      </cc:License>
    </rdf:RDF>
  </metadata>
  <defs
     id="defs6" />
  <sodipodi:namedview
     pagecolor="#ffffff"
     bordercolor="#666666"
     borderopacity="1"
     objecttolerance="10"
     gridtolerance="10"
     guidetolerance="10"
     inkscape:pageopacity="0"
     inkscape:pageshadow="2"
     inkscape:window-width="1600"
     inkscape:window-height="848"
     id="namedview4"
     showgrid="false"
     inkscape:zoom="8.4296296"
     inkscape:cx="23.956678"
     inkscape:cy="31.057044"
     inkscape:window-x="-8"
     inkscape:window-y="-8"
     inkscape:window-maximized="1"
     inkscape:current-layer="svg2" />
  <rect
     style="fill:#e1e1e1;fill-opacity:1;fill-rule:nonzero;stroke:none"
     id="rect3772"
     width="32.742001"
     height="38"
     x="-35.470119"
     y="-29.064148"
     rx="12.811955"
     ry="12.908413" />
  <path
     d="m 67.666488,19.219129 c -0.208538,-0.07067 -0.465234,-0.274165 -0.555696,-0.440418 -0.0413,-0.07616 -0.153398,-0.349181 -0.249136,-0.607342 -0.467229,-1.25984 -1.056676,-1.939507 -1.751915,-2.020041 -0.526666,-0.06104 -1.46719,0.605698 -2.540335,1.800814 -0.638796,0.711463 -0.86827,0.83177 -1.375523,0.721214 -0.309055,-0.06758 -0.666356,-0.380702 -0.747885,-0.655863 -0.17249,-0.582333 -0.04456,-0.842354 0.895647,-1.820953 1.029981,-1.071991 1.762649,-1.621174 2.610276,-1.956505 0.345786,-0.136834 0.418875,-0.148659 0.998938,-0.162246 0.585683,-0.0122 0.652196,-0.0036 1.035063,0.121862 0.559599,0.186687 0.874367,0.374266 1.339543,0.798367 0.617777,0.563151 1.108096,1.343306 1.496704,2.381235 0.208604,0.557275 0.252054,0.783319 0.201462,1.048231 -0.115168,0.60323 -0.776032,0.988682 -1.357143,0.791645 z m 4.296234,-1.41211 c -0.279315,-0.119891 -1.101363,-0.764821 -1.651936,-1.295867 -1.107209,-1.067965 -1.832874,-2.226098 -2.192058,-3.498391 -0.369385,-1.308289 -0.233138,-2.966787 0.333847,-4.0635364 0.341843,-0.6612672 0.964006,-0.8703723 1.54455,-0.519091 0.48269,0.2920033 0.617241,0.8456248 0.349448,1.4377317 -0.259498,0.5736297 -0.335912,0.9693077 -0.317722,1.6447767 0.01262,0.461537 0.04135,0.688588 0.123587,0.971035 0.134329,0.461302 0.465227,1.118251 0.792731,1.573927 0.319305,0.444244 1.117633,1.239886 1.67457,1.668775 0.678575,0.522677 0.8049,0.716488 0.775537,1.189902 -0.0435,0.701259 -0.791205,1.166236 -1.432554,0.890738 z M 57.072704,17.74481 c -0.370139,-0.0863 -0.687862,-0.372151 -0.786289,-0.706972 -0.07826,-0.266227 -0.03462,-0.648819 0.09793,-0.858426 0.06778,-0.107137 0.461677,-0.449416 1.003197,-0.871689 4.034346,-3.146431 7.616335,-6.6686192 9.569106,-9.4095961 C 67.699145,4.8559321 68.30694,3.740528 68.605245,2.8727251 69.025875,1.6489971 68.96813,0.74080208 68.398043,-0.38586547 67.88959,-1.390691 67.026187,-1.9391232 65.986753,-1.917463 65.071491,-1.8983916 64.174665,-1.4012004 63.585405,-0.58624736 63.448354,-0.39665139 63.133644,0.20133508 62.82404,0.86052852 61.260907,4.188716 59.820844,5.9676028 56.67055,8.4616743 55.610545,9.30094 52.92162,11.296292 52.746001,11.373967 c -0.255591,0.113049 -0.733259,0.07729 -0.970136,-0.07181 -0.495776,-0.313339 -0.633306,-1.016526 -0.292169,-1.4940369 0.05745,-0.080212 0.53217,-0.4648879 1.054842,-0.8542615 3.263444,-2.4314144 4.48461,-3.4383743 5.512026,-4.5451191 1.160784,-1.2503531 1.870336,-2.3544753 2.871892,-4.4688999 0.5943,-1.2545554 0.854369,-1.6875656 1.337069,-2.2263386 1.048901,-1.1706063 2.697465,-1.8596 4.135815,-1.7286375 1.127777,0.1028275 1.998325,0.4891752 2.800634,1.2430239 0.89222,0.8383943 1.461836,1.92046262 1.71206,3.252439 0.105075,0.559332 0.101761,1.3122648 -0.0086,1.9500021 -0.294347,1.7015012 -1.51079,3.9211239 -3.422637,6.245159 -1.740918,2.1163275 -4.318973,4.6264815 -7.200259,7.0106245 -1.032544,0.854397 -2.236827,1.797091 -2.464081,1.928854 -0.208951,0.121179 -0.53374,0.178358 -0.739777,0.13024 z m 19.22873,-2.629164 C 75.643934,14.880989 74.97096,14.538837 74.496201,14.197855 73.028283,13.143808 72.01363,11.306648 71.57416,8.9073828 71.310009,7.4652732 71.360658,6.4658005 71.834053,3.7783548 c 0.465836,-2.644578 0.506218,-3.94330157 0.1601,-5.1487524 -0.383317,-1.3351043 -1.332198,-2.5127916 -2.716439,-3.3715395 -1.047761,-0.6501131 -2.158565,-0.9545381 -3.387752,-0.9286248 -1.235105,0.026037 -2.303919,0.3772793 -3.35926,1.1039235 -1.341064,0.9234395 -2.275715,2.136974 -3.236959,4.20264812 -0.275584,0.5921693 -0.621039,1.26701273 -0.767686,1.49951858 -1.015202,1.6098997 -2.899153,3.4525478 -5.121836,5.009591 -0.66714,0.4673003 -0.85663,0.560468 -1.153266,0.5666493 -0.865702,0.018039 -1.386916,-1.0236284 -0.838211,-1.675201 0.07643,-0.090612 0.367909,-0.3235347 0.647645,-0.5172043 2.025917,-1.4027113 3.773306,-3.0822789 4.687639,-4.50573644 0.116202,-0.18096179 0.313983,-0.56056166 0.439496,-0.84373998 0.820991,-1.85170548 1.515493,-2.97291768 2.498243,-4.03342118 1.571896,-1.6961163 3.411584,-2.6475493 5.580581,-2.8862882 2.059673,-0.2267582 4.314219,0.4753253 6.07691,1.8922107 2.120694,1.7046891 3.119112,3.9756815 2.981388,6.78156023 -0.04339,0.88409517 -0.138357,1.62593467 -0.40444,3.15931127 -0.306292,1.7651636 -0.367724,2.2711536 -0.378057,3.1140518 -0.008,0.6543082 0.0067,0.845444 0.101707,1.3192672 0.340414,1.6977773 0.857849,2.8235413 1.655823,3.6025863 0.443558,0.433053 0.901041,0.705881 1.691189,1.008586 0.654242,0.250627 0.797142,0.34417 0.945523,0.619136 0.219575,0.406914 0.157356,0.892415 -0.155004,1.209592 -0.371992,0.377731 -0.7529,0.418676 -1.479954,0.159166 z m -22.487708,0.07741 c -0.226555,-0.09971 -0.399529,-0.267935 -0.541435,-0.526435 -0.09908,-0.180475 -0.08904,-0.639483 0.01883,-0.858078 0.117032,-0.237092 0.216421,-0.329382 0.94468,-0.877671 3.60274,-2.712146 6.861167,-5.914223 8.868395,-8.714948 0.790766,-1.1033135 1.31327,-1.9768884 1.809983,-3.025964 0.287412,-0.6070206 0.360174,-0.72325928 0.529372,-0.84591182 0.159479,-0.1154482 0.254592,-0.14653646 0.508607,-0.166232 0.204985,-0.0162709 0.368188,0.00233 0.474259,0.0401286 0.533635,0.21051938 0.795074,0.79450759 0.608737,1.35961269 -0.09569,0.2902557 -0.576525,1.277788 -0.880256,1.8079308 -2.032899,3.5483215 -5.808332,7.5398417 -10.545146,11.1487077 -0.429359,0.327116 -0.866965,0.631398 -0.972474,0.676206 -0.266295,0.112972 -0.541532,0.107306 -0.823579,-0.01685 z M 78.563108,12.351929 C 78.306982,12.230938 77.497064,11.462845 76.952882,10.824744 76.278871,10.034414 75.708875,9.0929838 75.434567,8.3169306 75.196981,7.6447337 75.128662,7.2422704 75.113047,6.4228177 c -0.01667,-0.8961471 0.0067,-1.1581912 0.320006,-3.5301331 0.31845,-2.4105575 0.366191,-2.94666893 0.347413,-3.9015845 -0.01818,-0.9205213 -0.08329,-1.2756416 -0.364473,-1.985938 -0.178121,-0.449887 -0.561907,-1.2084558 -0.835588,-1.6515503 -0.783249,-1.2681577 -2.052779,-2.5403857 -3.269797,-3.2768915 -2.814979,-1.7034249 -6.821642,-1.8624885 -9.632297,-0.3824118 -0.845993,0.4455215 -1.60072,1.0179686 -2.368241,1.796327 -0.88672,0.8991687 -1.53982,1.8016706 -2.601344,3.594775 -0.556969,0.940907 -1.004989,1.5796797 -1.556797,2.21961493 -0.88826,1.0302282 -2.27877,2.13813727 -2.810675,2.23944097 -0.41719,0.079708 -0.931577,-0.1864329 -1.119767,-0.57859773 -0.04988,-0.10408365 -0.09205,-0.29424577 -0.0954,-0.43100645 -0.01092,-0.42816459 0.168722,-0.73177344 0.580063,-0.98129657 0.409186,-0.24827912 1.072868,-0.80322635 1.523688,-1.27401995 0.721725,-0.753699 1.109934,-1.3021057 2.023643,-2.8587793 1.589943,-2.7087119 3.350693,-4.5001821 5.509353,-5.6055934 1.446613,-0.740698 2.848846,-1.109891 4.584985,-1.207182 3.048123,-0.170839 5.872952,0.673294 8.167758,2.4405698 1.802309,1.3880536 3.418507,3.6847816 4.078049,5.7952991 0.225631,0.7220564 0.261121,0.9918753 0.282832,2.1499752 0.02272,1.23429422 -0.0023,1.54168105 -0.332381,4.0171957 -0.382631,2.8695945 -0.418072,3.5865884 -0.213312,4.3159804 0.246703,0.8788513 0.912261,1.8629999 1.983929,2.9337068 0.631286,0.630685 0.740257,0.79565 0.747246,1.131077 0.01635,0.784529 -0.784468,1.297525 -1.498792,0.960133 z M 79.337776,8.3285171 C 79.111747,8.2652144 78.896034,8.1107716 78.757055,7.911625 78.557589,7.6259179 78.545101,7.3180108 78.699367,6.4872177 c 0.595636,-3.2090065 0.582964,-6.2498021 -0.03611,-8.6688298 -0.120529,-0.4709909 -0.205773,-0.7232699 -0.423587,-1.253547 -0.262354,-0.6386736 -0.213509,-1.027275 0.175061,-1.3923495 0.517862,-0.4866945 1.307819,-0.3242164 1.662569,0.3417374 0.27305,0.5126231 0.617793,1.6189811 0.819048,2.6285077 0.441371,2.21398489 0.464365,4.9288952 0.06457,7.6251092 -0.13567,0.9149249 -0.314333,1.8161432 -0.39613,1.9980869 -0.197047,0.4384014 -0.754654,0.6940721 -1.226986,0.5625838 z M 52.221907,-4.0610645 c -0.454852,-0.1120478 -0.745361,-0.4665729 -0.786296,-0.9598273 -0.02871,-0.3456764 0.04483,-0.5029428 0.765745,-1.6394066 1.33026,-2.0970688 2.922756,-4.0266646 4.19795,-5.0866606 2.081278,-1.730135 4.471833,-2.765163 7.344197,-3.179893 0.799183,-0.115675 2.653147,-0.191415 3.41546,-0.140186 3.132118,0.211094 6.042442,1.34741 8.758662,3.419572 1.167224,0.890477 2.997069,2.7398567 3.549749,3.5875269 0.309559,0.4748544 0.258834,1.0002251 -0.131127,1.3580266 -0.440711,0.4043695 -1.004159,0.4036074 -1.413928,-0.00154 -0.11721,-0.1159874 -0.395229,-0.4364607 -0.617809,-0.7120837 -0.491098,-0.6082004 -1.829719,-1.9080952 -2.514451,-2.4415458 -2.899657,-2.2592821 -6.00359,-3.2970421 -9.312838,-3.1136601 -2.788565,0.154127 -4.962351,0.852766 -6.911098,2.219662 -1.58101,1.1089778 -3.025539,2.7589295 -4.583918,5.2357326 -0.773536,1.2293825 -0.776251,1.2330398 -1.007121,1.3496747 -0.279458,0.1412534 -0.487353,0.1700901 -0.753171,0.1047136 z m 1.092239,-7.2072185 c -0.46846,-0.192988 -0.751755,-0.700891 -0.655483,-1.175099 0.06078,-0.299331 0.325142,-0.663619 0.974087,-1.342285 1.882092,-1.968336 4.382087,-3.434638 7.217015,-4.232772 2.538621,-0.714742 5.545953,-0.866427 8.386379,-0.422906 1.831716,0.286001 3.882687,0.957319 5.534592,1.81159 0.789548,0.408342 1.920244,1.115838 2.640445,1.65225 0.608005,0.452832 0.771176,0.682983 0.778003,1.09703 0.01175,0.708009 -0.702864,1.235911 -1.369371,1.011647 -0.08996,-0.03011 -0.436847,-0.252656 -0.770964,-0.494245 -1.462602,-1.057659 -2.880171,-1.805089 -4.401171,-2.320614 -3.345872,-1.134041 -7.325284,-1.211254 -10.593625,-0.205746 -2.504889,0.770652 -4.831366,2.247041 -6.305031,4.001222 -0.274454,0.326689 -0.473765,0.519784 -0.59807,0.579386 -0.218692,0.104879 -0.632195,0.124898 -0.836809,0.04044 z"
     id="path4138"
     inkscape:connector-curvature="0"
     style="fill:#000000;fill-opacity:1" />
  <path
     id="path3753"
     style="fill:none;stroke:#919191;stroke-width:5;stroke-linecap:round;stroke-linejoin:round;stroke-miterlimit:4;stroke-opacity:1;stroke-dasharray:none"
     d="m 6.5395498,10.17429 c 0.7408653,-1.9520786 2.3402,-3.5432761 3.9775962,-4.8388171 1.242812,-0.983338 2.744201,-1.660303 4.268645,-2.093438 0.979278,-0.27824 2.022824,-0.2462293 3.039548,-0.297934 1.219195,-0.062001 2.453007,-0.18146 3.662283,-0.014333 1.368105,0.1890774 2.759629,0.4995468 3.983586,1.1393823 1.564395,0.8178027 3.037124,1.9416322 4.101829,3.349658 0.928071,1.2273323 1.485164,2.5584127 1.835282,4.2356441"
     inkscape:connector-curvature="0"
     sodipodi:nodetypes="caaaaaac" />
  <path
     style="fill:none;stroke:#919191;stroke-width:5;stroke-linecap:round;stroke-linejoin:round;stroke-miterlimit:4;stroke-opacity:1;stroke-dasharray:none"
     d="m 28.226191,30.535847 c -0.705549,-0.276298 -2.334601,-2.105253 -2.9331,-3.506685 -0.492279,-1.152708 -0.452262,-2.484391 -0.415298,-3.737271 0.0444,-1.504792 0.705511,-2.947131 0.76257,-4.451496 0.03729,-0.983271 0.01802,-2.000111 -0.276597,-2.938947 -0.28837,-0.918928 -0.808138,-1.772901 -1.421391,-2.515536 -0.348954,-0.422576 -0.798177,-0.758586 -1.2526,-1.064918 -0.711789,-0.479826 -1.441775,-1.018308 -2.282216,-1.193051 -1.050788,-0.218477 -2.178824,-0.06167 -3.211511,0.230645 -1.154928,0.326914 -2.286754,0.87691 -3.194005,1.662802 -1.275306,1.104713 -1.992225,2.724079 -2.953811,4.110495 -0.566475,0.816745 -0.941198,1.789962 -1.658273,2.478272 -1.1594225,1.112912 -2.9893077,2.51719 -4.1134185,2.515015"
     id="path3761"
     inkscape:connector-curvature="0"
     sodipodi:nodetypes="caaaaaaaaaaac" />
  <path
     style="fill:none;stroke:#919191;stroke-width:5;stroke-linecap:round;stroke-linejoin:round;stroke-miterlimit:4;stroke-opacity:1;stroke-dasharray:none"
     d="m 18.150896,20.381584 c -0.879767,2.887668 -1.890819,4.740429 -3.506955,6.659271 -1.522926,1.808173 -3.627915,3.352908 -5.62199,4.323469"
     id="path3764"
     inkscape:connector-curvature="0"
     sodipodi:nodetypes="cac" />
  <path
     style="fill:none;stroke:#919191;stroke-width:5;stroke-linecap:round;stroke-linejoin:round;stroke-miterlimit:4;stroke-opacity:1;stroke-dasharray:none"
     d="m 17.696557,34.987707 c 0.591743,-0.876117 1.883594,-1.823128 2.139697,-2.959374 0.360415,-1.599032 0.578087,2.114498 1.043851,3.123918"
     id="path3768"
     inkscape:connector-curvature="0"
     sodipodi:nodetypes="csc" />
  <path
     style="fill:none;stroke:#919191;stroke-width:5;stroke-linecap:round;stroke-linejoin:round;stroke-miterlimit:4;stroke-opacity:1;stroke-dasharray:none"
     d="M 32.860324,19.731113 32.504352,22.69683"
     id="path3774"
     inkscape:connector-curvature="0" />
</svg>
